<mxfile host="65bd71144e">
    <diagram id="6p-ATPnQ9Vze-HiZHz-v" name="Page-1">
        <mxGraphModel dx="1459" dy="820" grid="1" gridSize="10" guides="1" tooltips="1" connect="1" arrows="1" fold="1" page="1" pageScale="1" pageWidth="850" pageHeight="1100" math="0" shadow="0">
            <root>
                <mxCell id="0"/>
                <mxCell id="1" parent="0"/>
                <mxCell id="2" value="Instructor Device" style="shape=umlFrame;whiteSpace=wrap;html=1;width=120;height=30;boundedLbl=1;verticalAlign=middle;align=left;spacingLeft=5;" parent="1" vertex="1">
                    <mxGeometry x="140" y="100" width="230" height="260" as="geometry"/>
                </mxCell>
                <mxCell id="3" value="Web App&lt;br&gt;&lt;&lt;React&gt;&gt;" style="verticalAlign=top;align=center;shape=cube;size=10;direction=south;html=1;boundedLbl=1;spacingLeft=5;" parent="2" vertex="1">
                    <mxGeometry x="49.14" y="150" width="120.86" height="80" as="geometry"/>
                </mxCell>
                <mxCell id="4" value="Mobile App&lt;br&gt;&lt;&lt;React Native&gt;&gt;" style="verticalAlign=top;align=center;shape=cube;size=10;direction=south;html=1;boundedLbl=1;spacingLeft=5;" parent="2" vertex="1">
                    <mxGeometry x="50" y="50" width="120" height="80" as="geometry"/>
                </mxCell>
                <mxCell id="5" value="Firebase Backend" style="shape=cloud;whiteSpace=wrap;html=1;boundedLbl=1;" parent="1" vertex="1">
                    <mxGeometry x="610" y="370" width="200" height="160" as="geometry"/>
                </mxCell>
                <mxCell id="7" value="Game Hosting Server" style="shape=isoRectangle;whiteSpace=wrap;html=1;boundedLbl=1;" parent="1" vertex="1">
                    <mxGeometry x="610" y="670" width="200" height="100" as="geometry"/>
                </mxCell>
                <mxCell id="8" value="Student Device" style="shape=umlFrame;whiteSpace=wrap;html=1;width=120;height=30;boundedLbl=1;verticalAlign=middle;align=left;spacingLeft=5;" parent="1" vertex="1">
                    <mxGeometry x="140" y="590" width="210" height="200" as="geometry"/>
                </mxCell>
                <mxCell id="9" value="Web Browser" style="verticalAlign=top;align=center;shape=cube;size=10;direction=south;html=1;boundedLbl=1;spacingLeft=5;" parent="8" vertex="1">
                    <mxGeometry x="42" y="70" width="128" height="80" as="geometry"/>
                </mxCell>
                <mxCell id="10" value="" style="edgeStyle=elbowEdgeStyle;html=1;rounded=0;" parent="1" source="3" target="5" edge="1">
                    <mxGeometry relative="1" as="geometry">
                        <Array as="points">
                            <mxPoint x="350" y="300"/>
                            <mxPoint x="280" y="530"/>
                            <mxPoint x="230" y="540"/>
                        </Array>
                    </mxGeometry>
                </mxCell>
                <mxCell id="11" value="" style="edgeStyle=elbowEdgeStyle;html=1;rounded=0;" parent="1" source="4" target="5" edge="1">
                    <mxGeometry relative="1" as="geometry">
                        <Array as="points">
                            <mxPoint x="700" y="260"/>
                        </Array>
                    </mxGeometry>
                </mxCell>
                <mxCell id="12" value="" style="edgeStyle=elbowEdgeStyle;html=1;rounded=0;" parent="1" source="5" target="7" edge="1">
                    <mxGeometry relative="1" as="geometry"/>
                </mxCell>
                <mxCell id="13" value="" style="edgeStyle=elbowEdgeStyle;html=1;rounded=0;" parent="1" source="7" target="9" edge="1">
                    <mxGeometry relative="1" as="geometry">
                        <Array as="points">
                            <mxPoint x="460" y="720"/>
                            <mxPoint x="490" y="670"/>
                        </Array>
                    </mxGeometry>
                </mxCell>
                <mxCell id="6" value="Services:&lt;br&gt;- Authentication&lt;br&gt;- Realtime Database&lt;br&gt;- Storage" style="html=1;whiteSpace=wrap;align=left;" parent="1" vertex="1">
                    <mxGeometry x="490" y="480" width="120" height="100" as="geometry"/>
                </mxCell>
            </root>
        </mxGraphModel>
    </diagram>
</mxfile>